<svg width="50" height="50" viewBox="0 0 50 50" fill="none" xmlns="http://www.w3.org/2000/svg">
<circle opacity="0.3" cx="25.0001" cy="25" r="25" fill="url(#paint0_linear_902_3626)"/>
<mask id="mask0_902_3626" style="mask-type:alpha" maskUnits="userSpaceOnUse" x="0" y="0" width="50" height="50">
<circle cx="25.0001" cy="25" r="25" fill="#C4C4C4"/>
</mask>
<g mask="url(#mask0_902_3626)">
<g clip-path="url(#clip0_902_3626)">
<path d="M19.0849 21.1349C19.0849 21.1349 20.1111 12.8522 19.8794 9.82733C19.7606 8.2758 19.0047 7.92479 17.8494 8.01328C16.694 8.10177 10.0872 11.5898 10.0872 11.5898L11.0287 13.8462L16.5233 12.1295C16.5233 12.1295 15.9634 15.3521 15.8342 15.9641C15.705 16.5762 15.4348 17.4006 15.2194 18.1395C15.114 18.5038 14.967 18.9757 14.967 19.2043C14.9699 19.7441 19.0849 21.1349 19.0849 21.1349Z" fill="#FFEDE5"/>
<path d="M16.5232 12.1296C17.2894 11.9821 18.0542 11.5323 18.2948 11.1739C18.1712 11.5769 17.8985 11.9184 17.5315 12.1296C17.1822 12.3533 16.8122 12.5434 16.4266 12.6974L16.5232 12.1296Z" fill="#F28F8F"/>
<path d="M29.4859 20.9873C29.3716 20.5655 28.6261 20.1216 26.4045 19.7514C24.1829 19.3812 22.1618 19.7514 22.15 20.0125C22.1381 20.2735 22.6979 22.0182 25.2596 22.3368C27.8212 22.6554 29.7206 21.9135 29.4859 20.9873Z" fill="#263238"/>
<path d="M22.8033 24.5725C22.8033 24.5725 21.3554 15.2457 21.5633 13.3417C21.7787 11.3742 22.5301 10.4613 23.7909 10.333C25.4377 11.2828 26.3154 13.5526 27.3683 15.7899C28.4211 18.0272 29.5616 22.8263 29.6225 25.1197C29.6834 27.4131 27.8568 29.0472 25.7882 29.3451C23.7196 29.643 22.8033 24.5725 22.8033 24.5725Z" fill="#FFEDE5"/>
<path d="M25.0784 17.2708C24.4102 16.7374 23.9588 15.982 23.8072 15.1441L25.8788 14.4273L27.2762 15.5821L27.3178 15.6721C27.3356 15.7104 27.3534 15.7488 27.3727 15.7871C27.4128 15.8726 27.4529 15.9626 27.493 16.054C27.5034 16.0806 27.5153 16.1071 27.5272 16.1352C27.5583 16.206 27.588 16.2826 27.6192 16.3564L27.6504 16.4331C27.692 16.5348 27.7321 16.6396 27.7737 16.7472C27.8138 16.8549 27.8539 16.9655 27.894 17.0776C27.9029 17.1027 27.9118 17.1263 27.9192 17.1498L28.0261 17.4596C28.0261 17.4743 28.0365 17.4905 28.0425 17.5053C28.1256 17.756 28.2088 18.0156 28.289 18.281L28.3023 18.3238C28.3424 18.4551 28.381 18.5878 28.4196 18.722C28.4196 18.722 26.4951 18.4477 25.0784 17.2708Z" fill="#F28F8F"/>
<path d="M23.3543 10.4127C24.1414 10.1045 25.0992 10.8257 25.6056 11.1501C26.6347 11.805 32.9267 16.6749 34.3939 17.8164C34.7117 18.0081 35.0355 18.1925 35.3651 18.3665L33.6366 21.0507C33.4946 20.6649 33.2725 20.3132 32.9847 20.0183C31.4165 18.9063 28.3811 18.3001 26.4268 17.545C24.9062 16.9551 24.5884 16.6247 24.0761 15.7619C23.684 15.0791 22.2688 10.923 23.3543 10.4127Z" fill="#FFEDE5"/>
<path d="M22.7722 24.6243L22.15 20.0125C22.15 20.0125 22.7083 21.2838 25.5833 21.6186C28.4583 21.9534 29.5587 21.4711 29.4859 20.9874C29.4859 20.9874 30.2374 23.8751 29.9463 25.7511C29.6552 27.6271 26.7698 29.6255 26.7698 29.6255L22.7722 24.6243Z" fill="#37474F"/>
<path opacity="0.15" d="M24.0449 25.2555C23.7806 25.2555 23.5326 25.2717 23.3024 25.2865L26.4982 29.2788H27.2407C28.0693 28.6255 29.7311 27.1565 29.9479 25.7554C30.1617 24.3794 29.8142 22.4621 29.6137 21.5359C29.7281 22.6008 27.3298 25.1862 24.0449 25.2555Z" fill="black"/>
<path d="M38.4376 14.4642C37.3981 14.2724 36.9155 15.0172 36.5324 15.6322C36.1492 16.2472 35.5077 17.3755 35.2211 17.5657C34.9345 17.756 34.7756 17.5657 34.3672 17.871C33.9588 18.1763 33.6603 18.7559 33.7866 18.9668L34.0836 19.4801C33.9123 19.4614 33.7391 19.4831 33.5778 19.5433C33.4166 19.6035 33.2719 19.7006 33.1554 19.8267C32.7099 20.2691 32.9416 20.3429 33.1926 20.5936C33.4435 20.8443 34.0331 21.977 34.6241 22.2852C34.6241 22.2852 36.2161 21.8118 37.3699 20.0184C38.5238 18.225 38.4376 14.4642 38.4376 14.4642Z" fill="url(#paint1_linear_902_3626)"/>
<path d="M34.9524 22.5227C34.8915 22.512 34.8335 22.4887 34.7821 22.4545C34.7308 22.4203 34.6871 22.3758 34.654 22.3239C34.6209 22.272 34.5991 22.2139 34.5898 22.1531C34.5806 22.0924 34.5842 22.0304 34.6004 21.9711C34.7763 21.4181 35.0406 20.8967 35.383 20.427C35.7825 19.8636 36.5309 18.8047 36.6572 18.2251C36.7834 17.6454 37.0551 16.0217 37.4992 15.3418C37.9432 14.6619 38.3991 14.2695 38.9842 14.4893C39.5693 14.709 37.7219 19.0613 37.1799 19.7987C36.6379 20.5361 34.9524 22.5227 34.9524 22.5227Z" fill="#37474F"/>
<path d="M35.2938 22.4282C36.7565 21.6539 37.2377 20.9018 37.6698 19.921C38.1019 18.9402 39.1118 18.0362 39.3731 17.1557C39.6345 16.2752 39.6612 14.0172 38.6559 14.5644C37.6505 15.1116 37.4411 17.1306 37.0001 18.2972C36.559 19.4638 33.8593 23.1907 35.2938 22.4282Z" fill="#263238"/>
<path d="M26.5025 24.813C27.1708 24.7113 28.4553 24.9856 29.621 26.602C30.8729 28.3379 31.106 31.3672 30.3205 31.6164C30.3205 31.6164 28.4998 31.4041 27.2495 30.7537C25.9991 30.1033 23.8978 25.7097 26.5025 24.813Z" fill="#263238"/>
<path d="M47.857 39.2664C45.9176 38.5098 44.3301 37.209 42.9565 35.7548C41.8516 34.2653 37.1174 27.8866 36.2962 26.9884C35.9992 26.6699 35.2953 25.8499 34.3196 25.6449C30.8655 24.9074 24.4695 25.0166 24.4695 25.0166L22.0104 24.6051L17.1098 29.1859C17.7855 29.9012 18.6334 30.5251 19.8734 31.1666C21.1134 31.8082 22.4544 32.2742 24.2631 32.1223C27.8836 31.8185 30.0547 30.8023 31.9926 30.3525C32.554 30.2227 33.1361 30.1033 33.5771 31.0177C34.0182 31.9321 34.0538 32.3907 35.3592 33.3627C37.0328 34.6104 39.7964 36.0056 41.0022 37.4922C41.2008 37.8566 41.3193 38.2588 41.3497 38.6721C41.4641 40.2398 42.7887 39.9316 43.8564 40.6129C44.4385 40.9846 44.8707 41.4359 45.5716 41.5893C46.2098 41.7197 46.8692 41.7076 47.5021 41.5539C48.0724 41.4197 48.8891 41.0111 49.1698 40.4596C49.5381 39.7251 48.4154 39.4832 47.857 39.2664Z" fill="#FFEDE5"/>
<path d="M47.857 39.2664C45.9176 38.5098 44.3301 37.209 42.9565 35.7548C41.8516 34.2653 37.1174 27.8866 36.2962 26.9884C35.9992 26.6699 35.2953 25.8499 34.3196 25.6449C30.8655 24.9074 24.4695 25.0166 24.4695 25.0166L22.0104 24.6051L17.1098 29.1859C17.7855 29.9012 18.6334 30.5251 19.8734 31.1666C21.1134 31.8082 22.4544 32.2742 24.2631 32.1223C27.8836 31.8185 30.0547 30.8023 31.9926 30.3525C32.554 30.2227 33.1361 30.1033 33.5771 31.0177C34.0182 31.9321 34.0538 32.3907 35.3592 33.3627C37.0328 34.6104 39.7964 36.0056 41.0022 37.4922C41.2008 37.8566 41.3193 38.2588 41.3497 38.6721C41.4641 40.2398 42.7887 39.9316 43.8564 40.6129C44.4385 40.9846 44.8707 41.4359 45.5716 41.5893C46.2098 41.7197 46.8692 41.7076 47.5021 41.5539C48.0724 41.4197 48.8891 41.0111 49.1698 40.4596C49.5381 39.7251 48.4154 39.4832 47.857 39.2664Z" fill="#FFEDE5"/>
<path d="M35.2478 32.6194C34.8802 32.2146 34.6011 31.7386 34.4281 31.2212C34.2952 30.7888 34.1243 30.3688 33.9173 29.9661C33.3144 28.9338 29.3137 30.2508 27.5421 30.7906C27.4426 30.9381 27.0268 31.3805 26.8783 31.7492C29.0241 31.3141 30.5686 30.6814 31.9897 30.3511C32.5511 30.2213 33.1332 30.1018 33.5742 31.0162C34.0153 31.9306 34.0509 32.3893 35.3562 33.3612C36.0364 33.8686 36.8962 34.3936 37.759 34.9526C36.7952 34.2092 36.0691 33.4645 35.2478 32.6194Z" fill="#F28F8F"/>
<path d="M22.3906 24.6051C22.3906 24.6051 25.9056 24.7762 26.5026 24.819C26.5026 24.819 25.1794 25.1729 26.7892 28.4043C28.3989 31.6356 30.322 31.6179 30.322 31.6179C27.7975 32.4202 26.4862 33.3214 23.2682 32.9453C19.4324 32.3952 17.1069 29.5428 17.1069 29.5428L22.3906 24.6051Z" fill="#455A64"/>
<path opacity="0.15" d="M30.3131 31.618C30.2839 31.6198 30.2547 31.6198 30.2255 31.618C29.9389 31.5855 29.0865 31.3997 28.1316 30.3894C27.3736 30.5902 26.6046 30.7473 25.8284 30.8599C22.9593 31.2773 20.8075 30.7744 17.6014 29.0768L17.1069 29.5399C18.3793 30.965 20.0115 32.027 21.8352 32.6164C21.9465 32.6504 22.0609 32.6843 22.1767 32.7153C22.2851 32.7433 22.395 32.7713 22.5049 32.7964L22.5346 32.8037C22.6356 32.8273 22.7395 32.848 22.8435 32.8686L22.8984 32.879C23.0202 32.9026 23.142 32.9232 23.2667 32.9409C23.4687 32.9645 23.6617 32.9822 23.8488 32.997C24.0359 33.0117 24.2156 33.0191 24.3909 33.025H24.6478C24.7324 33.025 24.8156 33.025 24.8973 33.025C25.1423 33.025 25.3754 33.0058 25.5997 32.9837C25.7482 32.9689 25.8937 32.9512 26.0363 32.9306C26.3796 32.8789 26.7197 32.808 27.055 32.7182C27.1857 32.6828 27.3149 32.6459 27.4426 32.6061C27.7648 32.5088 28.0826 32.3996 28.4093 32.2817L28.8058 32.1342C29.2751 31.9631 29.7681 31.7832 30.3205 31.6077L30.3131 31.618Z" fill="black"/>
<path d="M10.6366 20.2057C9.20804 20.6983 7.85816 21.5596 9.00311 24.0801C10.6366 27.72 18.0409 31.7611 21.8426 32.6194C19.912 29.7184 21.5188 26.6434 22.7796 24.6243L22.4395 22.1584C22.4395 22.1584 21.299 21.6142 19.4101 20.1644C17.5212 18.7147 16.7371 18.3209 13.9259 19.1704C11.9939 19.7544 10.6366 20.2057 10.6366 20.2057Z" fill="url(#paint2_linear_902_3626)"/>
<path opacity="0.05" d="M16.4238 28.4322C12.536 26.2199 11.3138 24.2496 9.7887 22.3574L8.79077 23.5667C8.8175 23.6449 8.8472 23.7245 8.87987 23.8071C8.87931 23.8115 8.87931 23.816 8.87987 23.8204C8.91254 23.9045 8.94967 23.9915 8.98976 24.08C9.71445 25.6728 11.5336 27.3423 13.672 28.795C13.969 29.0015 14.2898 29.2035 14.6046 29.3997C14.7635 29.4985 14.9224 29.5958 15.0828 29.6947C16.1703 30.3413 17.296 30.9225 18.4538 31.435C19.54 31.933 20.6712 32.328 21.8322 32.6148C21.4093 31.9907 21.1267 31.2835 21.0035 30.5412C19.6522 30.1371 18.2028 29.4454 16.4238 28.4322Z" fill="black"/>
<path d="M9.56446 20.6996C9.56446 20.6996 4.76935 18.1541 4.0105 17.8104L8.20716 15.3637L7.31615 13.0674C7.31615 13.0674 1.07908 15.2693 -0.10893 15.902C-0.731151 16.2368 -0.999939 16.5126 -0.999939 16.9875C-0.999939 17.7795 -0.241096 18.806 0.810294 19.6953C3.04524 21.5875 6.07764 23.3499 9.03134 24.9604C9.70851 25.4589 10.4124 26.0857 10.4124 26.0857C11.1891 26.4721 12.3192 22.906 9.56446 20.6996Z" fill="#FFEDE5"/>
<path d="M14.0537 11.8523C13.7541 11.1617 13.1907 10.6176 12.4872 10.3396C11.7837 10.0617 10.9979 10.0726 10.3025 10.3701C9.60718 10.6676 9.0593 11.2272 8.77941 11.9258C8.49953 12.6245 8.51056 13.4049 8.81008 14.0955C8.82939 14.1427 8.85315 14.1855 8.87542 14.2297L8.15074 15.796L7.08004 13.8359C7.08048 13.6816 7.02313 13.5325 6.91912 13.4178C6.81511 13.303 6.67187 13.2308 6.51722 13.215C6.43879 13.2084 6.35982 13.2177 6.28511 13.2423C6.2104 13.2669 6.14151 13.3063 6.08262 13.3582C6.02372 13.41 5.97607 13.4732 5.94254 13.544C5.90901 13.6147 5.89031 13.6915 5.88757 13.7696L6.70582 13.8404C6.52626 13.9587 6.38862 14.1299 6.31229 14.33C6.11775 14.8344 6.79492 15.8624 7.70226 16.765C7.70226 16.765 8.9868 18.5657 9.29865 18.8179C9.49959 18.9698 9.75148 19.0395 10.0025 19.0126L10.0798 15.473C10.6014 15.7526 11.1977 15.8639 11.7858 15.7914C12.374 15.7189 12.9249 15.4663 13.3619 15.0687C13.7989 14.671 14.1003 14.148 14.2243 13.5724C14.3482 12.9968 14.2886 12.3971 14.0537 11.8567V11.8523Z" fill="#263238"/>
<path d="M8.78178 16.4063C8.66298 16.57 8.30063 16.362 8.01403 16.2411C7.72742 16.1202 6.95967 16.1157 6.92996 16.9284C6.90026 17.741 7.90562 18.4032 8.48329 18.3427C9.47825 18.241 9.3743 17.626 9.3743 17.626L10.8356 20.8396C12.527 21.7599 15.6752 20.3116 13.7863 19.4017L13.369 18.4474C13.73 18.3511 14.0788 18.214 14.4085 18.0389C15.0025 17.6643 15.197 16.9859 15.0916 16.2086C14.9238 14.9624 14.6461 14.0126 13.4373 11.9316C12.1008 9.65744 9.27926 10.8344 8.17738 12.4316C7.0755 14.0288 8.78178 16.4063 8.78178 16.4063Z" fill="#FFEDE5"/>
<path d="M8.89911 16.6793C8.81892 16.7162 8.29173 16.3416 8.0081 16.2457C7.62348 16.1145 6.99829 13.6972 6.99829 13.6972C6.99829 13.6972 6.48744 13.2474 6.76811 12.4362C6.99829 11.7711 7.84772 11.3257 8.43578 11.0307C9.49608 10.4983 10.6826 9.89214 11.2024 8.77717C11.2439 8.68868 11.3033 8.58839 11.4014 8.58691C11.4318 8.58961 11.4614 8.5983 11.4884 8.61248C11.5155 8.62666 11.5394 8.64605 11.5588 8.6695C11.8036 8.94247 11.9416 9.29362 11.9478 9.65912C11.9478 9.69304 11.9582 9.73581 11.9924 9.74613C12.0265 9.75646 12.0518 9.72843 12.0726 9.70336C12.1804 9.57221 12.2625 9.42213 12.3146 9.26091C12.3859 9.04116 12.7601 9.60012 12.7869 9.67682C12.8744 9.91945 12.9122 10.177 12.8979 10.4344C12.8836 10.6917 12.8176 10.9436 12.7037 11.1752C12.4721 11.6369 11.9954 11.923 11.5588 12.1752C10.5861 12.7386 8.92287 13.2754 8.6912 13.3388C8.37638 13.4258 8.43727 13.74 8.61547 14.591C8.77882 15.3431 9.16789 16.554 8.89911 16.6793Z" fill="#263238"/>
<path d="M13.3691 18.4475C13.3691 18.4475 11.6316 18.8118 11.0138 18.766C10.6514 18.7399 10.3055 18.6052 10.0219 18.3796C10.2235 18.6396 10.4761 18.8564 10.7644 19.0168C11.3346 19.3265 13.5324 18.8324 13.5324 18.8324L13.3691 18.4475Z" fill="#F28F8F"/>
<path d="M10.6545 13.9567L10.1377 14.5171C10.0632 14.4452 10.0196 14.3475 10.016 14.2445C10.0125 14.1414 10.0491 14.0409 10.1184 13.9641C10.1527 13.928 10.194 13.8992 10.2398 13.8793C10.2856 13.8594 10.3349 13.8487 10.3848 13.8481C10.4348 13.8474 10.4844 13.8566 10.5307 13.8753C10.577 13.8939 10.6191 13.9216 10.6545 13.9567Z" fill="#263238"/>
<path d="M12.3192 16.8195L13.0839 16.7841C13.0886 16.8341 13.0831 16.8845 13.0677 16.9323C13.0523 16.9801 13.0274 17.0243 12.9944 17.0623C12.9614 17.1003 12.921 17.1313 12.8757 17.1534C12.8303 17.1756 12.781 17.1884 12.7305 17.1912C12.6269 17.1941 12.5261 17.157 12.4494 17.0877C12.3727 17.0184 12.326 16.9223 12.3192 16.8195Z" fill="#F28F8F"/>
<path d="M13.7998 13.0675L13.0573 12.8787C13.0674 12.8296 13.0874 12.783 13.1162 12.7419C13.145 12.7007 13.1818 12.6657 13.2246 12.6391C13.2674 12.6125 13.3151 12.5948 13.365 12.587C13.4149 12.5793 13.4658 12.5817 13.5147 12.5941C13.614 12.6221 13.6987 12.6867 13.7517 12.7747C13.8047 12.8626 13.8219 12.9674 13.7998 13.0675Z" fill="#263238"/>
<path d="M12.2152 14.222L12.7216 16.0317L13.6126 15.4948L12.2152 14.222Z" fill="#F28F8F"/>
<path d="M10.8059 15.0334C10.8062 15.0987 10.826 15.1624 10.8627 15.2165C10.8994 15.2706 10.9515 15.3128 11.0123 15.3375C11.0731 15.3623 11.1399 15.3686 11.2044 15.3557C11.2688 15.3428 11.3279 15.3112 11.3743 15.265C11.4207 15.2187 11.4522 15.1599 11.4649 15.0958C11.4776 15.0318 11.471 14.9654 11.4457 14.9051C11.4205 14.8449 11.3779 14.7933 11.3232 14.7571C11.2685 14.7209 11.2043 14.7015 11.1386 14.7015C11.0947 14.7015 11.0514 14.7101 11.0109 14.7268C10.9705 14.7435 10.9337 14.768 10.9028 14.7988C10.8719 14.8297 10.8474 14.8662 10.8308 14.9065C10.8142 14.9468 10.8057 14.9899 10.8059 15.0334Z" fill="#263238"/>
<path d="M13.2131 14.0968C13.2128 14.1602 13.2315 14.2223 13.2668 14.2751C13.3021 14.328 13.3524 14.3692 13.4113 14.3936C13.4703 14.418 13.5352 14.4245 13.5978 14.4122C13.6605 14.3999 13.718 14.3694 13.7632 14.3245C13.8083 14.2797 13.8391 14.2225 13.8515 14.1603C13.8638 14.0981 13.8573 14.0336 13.8328 13.9751C13.8082 13.9165 13.7667 13.8666 13.7134 13.8315C13.6602 13.7965 13.5977 13.7779 13.5338 13.7782C13.4489 13.7786 13.3675 13.8123 13.3075 13.8719C13.2474 13.9316 13.2135 14.0124 13.2131 14.0968Z" fill="#263238"/>
<path d="M41.1567 39.001C41.0304 39.0865 41.2264 39.6263 41.3408 39.759C41.579 39.989 41.8732 40.1536 42.1947 40.2369C42.7793 40.4147 43.3256 40.6988 43.8059 41.0746C44.3983 41.5509 45.0872 41.8945 45.8255 42.0819C46.7017 42.2751 47.7145 42.0288 48.5981 41.5082C49.5247 40.964 49.4386 40.4419 49.3124 40.0938L41.1567 39.001Z" fill="#37474F"/>
<path d="M43.1614 35.9716C43.4584 36.2842 45.0741 37.8711 46.3141 38.2752C47.3016 38.5968 48.5862 38.9035 49.149 39.5008C49.7341 40.1232 48.8624 40.9196 47.664 41.3768C46.4136 41.8517 45.5641 41.4683 44.734 41.0538C44.1504 40.7589 43.2906 40.1689 42.8584 39.9315C42.4263 39.694 41.6259 39.5643 41.2918 39.2118C41.1076 39.0171 40.9754 38.4744 40.8953 37.998C40.8225 37.5555 40.5285 37.1558 40.6784 37.1323L40.922 37.3962C42.0506 37.6027 43.2267 36.5674 43.1614 35.9716Z" fill="url(#paint3_linear_902_3626)"/>
<path d="M4.01054 17.8105C3.29888 18.1924 2.53034 18.4587 1.73401 18.5996C1.73401 18.5996 2.99479 18.9137 4.49465 18.0509L4.01054 17.8105Z" fill="#F28F8F"/>
</g>
</g>
<defs>
<linearGradient id="paint0_linear_902_3626" x1="50.0001" y1="50" x2="-16.6396" y2="44.8434" gradientUnits="userSpaceOnUse">
<stop stop-color="#92A3FD"/>
<stop offset="1" stop-color="#9DCEFF"/>
</linearGradient>
<linearGradient id="paint1_linear_902_3626" x1="38.4391" y1="22.2852" x2="31.0393" y2="21.8815" gradientUnits="userSpaceOnUse">
<stop stop-color="#92A3FD"/>
<stop offset="1" stop-color="#9DCEFF"/>
</linearGradient>
<linearGradient id="paint2_linear_902_3626" x1="22.7796" y1="32.6194" x2="3.85094" y2="31.1216" gradientUnits="userSpaceOnUse">
<stop stop-color="#92A3FD"/>
<stop offset="1" stop-color="#9DCEFF"/>
</linearGradient>
<linearGradient id="paint3_linear_902_3626" x1="49.3356" y1="41.5963" x2="37.8366" y2="40.2201" gradientUnits="userSpaceOnUse">
<stop stop-color="#92A3FD"/>
<stop offset="1" stop-color="#9DCEFF"/>
</linearGradient>
<clipPath id="clip0_902_3626">
<rect width="50.3895" height="34.1483" fill="white" transform="translate(-0.999939 8)"/>
</clipPath>
</defs>
</svg>
